<svg xmlns="http://www.w3.org/2000/svg" xmlns:xlink="http://www.w3.org/1999/xlink" width="512"
  height="64" viewBox="0 0 512 64" fill="none" shape-rendering="crispEdges"
  style="image-rendering: pixelated;">
  <path fill="#FFFFFF" d="M0 64L512 64L512 0L0 0L0 64Z">
</path>
  <rect x="0" y="32" width="32" height="32" fill="#8A0404">
</rect>
  <rect x="0" y="0" width="32" height="32" fill="#700707">
</rect>
  <rect x="480" y="32" width="32" height="32" fill="#004D70">
</rect>
  <rect x="480" y="0" width="32" height="32" fill="#075173">
</rect>
  <rect x="32" y="32" width="32" height="32" fill="#AD0303">
</rect>
  <rect x="32" y="0" width="32" height="32" fill="#8C1212">
</rect>
  <rect x="64" y="32" width="32" height="32" fill="#9C0606">
</rect>
  <rect x="64" y="0" width="32" height="32" fill="#820909">
</rect>
  <rect x="96" y="32" width="32" height="32" fill="#960606">
</rect>
  <rect x="96" y="0" width="32" height="32" fill="#851313">
</rect>
  <rect x="448" y="32" width="32" height="32" fill="#075173">
</rect>
  <rect x="448" y="0" width="32" height="32" fill="#084D6E">
</rect>
  <rect x="160" y="32" width="32" height="32" fill="#BF1B1B">
</rect>
  <rect x="160" y="0" width="32" height="32" fill="#AD0303">
</rect>
  <rect x="128" y="32" width="32" height="32" fill="#AD0303">
</rect>
  <rect x="128" y="0" width="32" height="32" fill="#A30000">
</rect>
  <rect x="352" y="32" width="32" height="32" fill="#055275">
</rect>
  <rect x="352" y="0" width="32" height="32" fill="#055980">
</rect>
  <rect x="384" y="32" width="32" height="32" fill="#084D6E">
</rect>
  <rect x="384" y="0" width="32" height="32" fill="#0F506E">
</rect>
  <rect x="192" y="32" width="32" height="32" fill="#AD0303">
</rect>
  <rect x="192" y="0" width="32" height="32" fill="#C70808">
</rect>
  <rect x="224" y="32" width="32" height="32" fill="#B80909">
</rect>
  <rect x="224" y="0" width="32" height="32" fill="#B80909">
</rect>
  <rect x="288" y="32" width="32" height="32" fill="#0E5C80">
</rect>
  <rect x="288" y="0" width="32" height="32" fill="#0D709E">
</rect>
  <rect x="320" y="32" width="32" height="32" fill="#0C597D">
</rect>
  <rect x="320" y="0" width="32" height="32" fill="#09648F">
</rect>
  <rect x="256" y="32" width="32" height="32" fill="#055980">
</rect>
  <rect x="256" y="0" width="32" height="32" fill="#0A6894">
</rect>
  <rect x="416" y="32" width="32" height="32" fill="#0D5475">
</rect>
  <rect x="416" y="0" width="32" height="32" fill="#084D6E">
</rect>
</svg>