<svg xmlns="http://www.w3.org/2000/svg" xmlns:xlink="http://www.w3.org/1999/xlink" width="768"
  height="320" viewBox="0 0 768 320" fill="none" shape-rendering="crispEdges"
  style="image-rendering: pixelated;">
  <path fill="#FFFFFF" d="M0 320L768 320L768 0L0 0L0 320Z">
</path>
  <path d="M0 192L768 192L768 128L0 128L0 192Z" fill="#FFFFFF">
</path>
  <rect x="0" y="160" width="32" height="32" fill="#8A0404">
</rect>
  <rect x="0" y="128" width="32" height="32" fill="#700707">
</rect>
  <rect x="736" y="160" width="32" height="32" fill="#004D70">
</rect>
  <rect x="736" y="128" width="32" height="32" fill="#075173">
</rect>
  <rect x="32" y="160" width="32" height="32" fill="#AD0303">
</rect>
  <rect x="32" y="128" width="32" height="32" fill="#8C1212">
</rect>
  <rect x="64" y="160" width="32" height="32" fill="#9C0606">
</rect>
  <rect x="128" y="160" width="32" height="32" fill="#9C0606">
</rect>
  <rect x="64" y="128" width="32" height="32" fill="#820909">
</rect>
  <rect x="160" y="160" width="32" height="32" fill="#960606">
</rect>
  <rect x="96" y="128" width="32" height="32" fill="#851313">
</rect>
  <rect x="96" y="160" width="32" height="32" fill="#851313">
</rect>
  <rect x="704" y="160" width="32" height="32" fill="#075173">
</rect>
  <rect x="704" y="128" width="32" height="32" fill="#084D6E">
</rect>
  <rect x="224" y="160" width="32" height="32" fill="#BF1B1B">
</rect>
  <rect x="224" y="128" width="32" height="32" fill="#AD0303">
</rect>
  <rect x="192" y="160" width="32" height="32" fill="#AD0303">
</rect>
  <rect x="192" y="128" width="32" height="32" fill="#A30000">
</rect>
  <rect x="160" y="128" width="32" height="32" fill="#A30000">
</rect>
  <rect x="128" y="128" width="32" height="32" fill="#A30000">
</rect>
  <rect x="608" y="160" width="32" height="32" fill="#055275">
</rect>
  <rect x="608" y="128" width="32" height="32" fill="#024F73">
</rect>
  <rect x="640" y="160" width="32" height="32" fill="#084D6E">
</rect>
  <rect x="640" y="128" width="32" height="32" fill="#0F506E">
</rect>
  <rect x="256" y="160" width="32" height="32" fill="#AD0303">
</rect>
  <rect x="256" y="128" width="32" height="32" fill="#C70808">
</rect>
  <rect x="288" y="160" width="32" height="32" fill="#B80909">
</rect>
  <rect x="288" y="128" width="32" height="32" fill="#B80909">
</rect>
  <rect x="320" y="160" width="32" height="32" fill="#AD0303">
</rect>
  <rect x="320" y="128" width="32" height="32" fill="#C70808">
</rect>
  <rect x="352" y="160" width="32" height="32" fill="#B80909">
</rect>
  <rect x="352" y="128" width="32" height="32" fill="#B80909">
</rect>
  <rect x="544" y="160" width="32" height="32" fill="#0E5C80">
</rect>
  <rect x="544" y="128" width="32" height="32" fill="#045E87">
</rect>
  <rect x="480" y="160" width="32" height="32" fill="#0D709E">
</rect>
  <rect x="416" y="128" width="32" height="32" fill="#0D709E">
</rect>
  <rect x="448" y="160" width="32" height="32" fill="#187EAD">
</rect>
  <rect x="576" y="160" width="32" height="32" fill="#0C597D">
</rect>
  <rect x="576" y="128" width="32" height="32" fill="#055980">
</rect>
  <rect x="512" y="160" width="32" height="32" fill="#08618A">
</rect>
  <rect x="512" y="128" width="32" height="32" fill="#0F6A94">
</rect>
  <rect x="480" y="128" width="32" height="32" fill="#13729E">
</rect>
  <rect x="448" y="128" width="32" height="32" fill="#1075A3">
</rect>
  <rect x="416" y="160" width="32" height="32" fill="#1877A3">
</rect>
  <rect x="384" y="160" width="32" height="32" fill="#055980">
</rect>
  <rect x="384" y="128" width="32" height="32" fill="#0A6894">
</rect>
  <rect x="672" y="160" width="32" height="32" fill="#0D5475">
</rect>
  <rect x="672" y="128" width="32" height="32" fill="#084D6E">
</rect>
  <ellipse cx="384" cy="160" rx="256" ry="160" fill="url(#linear_fill_3_164)">
</ellipse>
  <rect x="244" y="194.90911865234375" width="23.28965304976714" height="23.272720336914062"
    fill="#290303">
</rect>
  <rect x="267.2896728515625" y="218.18174743652344" width="23.2896728515625"
    height="23.272720336914062" fill="#290303">
</rect>
  <rect x="290.579345703125" y="241.45448303222656" width="23.28966522216797"
    height="23.272720336914062" fill="#290303">
</rect>
  <rect x="313.8690185546875" y="241.45448303222656" width="23.289653778076172"
    height="23.272720336914062" fill="#290303">
</rect>
  <rect x="337.15869140625" y="241.45448303222656" width="23.289657592773438"
    height="23.272720336914062" fill="#2F0706">
</rect>
  <rect x="337.15869140625" y="264.7272491455078" width="23.289657592773438"
    height="23.272720336914062" fill="#290303">
</rect>
  <rect x="360.44830322265625" y="264.7272491455078" width="23.289657592773438"
    height="23.272720336914062" fill="#290303">
</rect>
  <rect x="383.738037109375" y="264.7272491455078" width="23.28966522216797"
    height="23.272720336914062" fill="#290303">
</rect>
  <rect x="407.027587890625" y="264.7272491455078" width="23.2896728515625"
    height="23.272720336914062" fill="#290303">
</rect>
  <rect x="407.027587890625" y="241.45448303222656" width="23.2896728515625"
    height="23.272720336914062" fill="#2F0706">
</rect>
  <rect x="430.3173828125" y="241.45448303222656" width="23.289657592773438"
    height="23.272720336914062" fill="#290303">
</rect>
  <rect x="453.60699462890625" y="241.45448303222656" width="23.289657592773438"
    height="23.272720336914062" fill="#290303">
</rect>
  <rect x="453.60699462890625" y="218.18174743652344" width="23.289657592773438"
    height="23.272720336914062" fill="#2F0706">
</rect>
  <rect x="476.89666748046875" y="218.18174743652344" width="23.289657592773438"
    height="23.272720336914062" fill="#290303">
</rect>
  <rect x="244" y="171.6362762451172" width="23.28965304976714" height="23.272720336914062"
    fill="#560803">
</rect>
  <rect x="267.2896728515625" y="194.90911865234375" width="23.2896728515625"
    height="23.272720336914062" fill="#560803">
</rect>
  <rect x="290.579345703125" y="218.18174743652344" width="23.28966522216797"
    height="23.272720336914062" fill="#3C0603">
</rect>
  <rect x="313.8690185546875" y="218.18174743652344" width="23.289653778076172"
    height="23.272720336914062" fill="#A60E04">
</rect>
  <rect x="337.15869140625" y="218.18174743652344" width="23.289657592773438"
    height="23.272720336914062" fill="#6C0303">
</rect>
  <rect x="360.44830322265625" y="218.18174743652344" width="23.289657592773438"
    height="23.272720336914062" fill="#3C0603">
</rect>
  <rect x="383.738037109375" y="218.18174743652344" width="23.28966522216797"
    height="23.272720336914062" fill="#560803">
</rect>
  <rect x="383.738037109375" y="241.45448303222656" width="23.28966522216797"
    height="23.272720336914062" fill="#3C0603">
</rect>
  <rect x="360.44830322265625" y="241.45448303222656" width="23.289657592773438"
    height="23.272720336914062" fill="#3C0603">
</rect>
  <rect x="407.027587890625" y="218.18174743652344" width="23.2896728515625"
    height="23.272720336914062" fill="#3C0603">
</rect>
  <rect x="430.3173828125" y="218.18174743652344" width="23.289657592773438"
    height="23.272720336914062" fill="#3C0603">
</rect>
  <rect x="244" y="148.3636245727539" width="23.28965304976714" height="23.272720336914062"
    fill="#560803">
</rect>
  <rect x="267.2896728515625" y="125.09087371826172" width="23.2896728515625"
    height="23.272727966308594" fill="#560803">
</rect>
  <rect x="290.579345703125" y="101.81814575195312" width="23.28966522216797"
    height="23.272720336914062" fill="#560803">
</rect>
  <rect x="313.8690185546875" y="78.54544067382812" width="23.289653778076172"
    height="23.272724151611328" fill="#560803">
</rect>
  <rect x="337.15869140625" y="55.27272033691406" width="23.289657592773438"
    height="23.272722244262695" fill="#560803">
</rect>
  <rect x="360.44830322265625" y="32" width="23.289657592773438" height="23.2727108001709"
    fill="#560803">
</rect>
  <rect x="383.738037109375" y="32" width="23.28966522216797" height="23.2727108001709"
    fill="#560803">
</rect>
  <rect x="407.027587890625" y="55.27272033691406" width="23.2896728515625"
    height="23.272722244262695" fill="#560803">
</rect>
  <rect x="430.3173828125" y="78.54544067382812" width="23.289657592773438"
    height="23.272724151611328" fill="#290303">
</rect>
  <rect x="453.60699462890625" y="101.81814575195312" width="23.289657592773438"
    height="23.272720336914062" fill="#290303">
</rect>
  <rect x="476.89666748046875" y="125.09087371826172" width="23.289657592773438"
    height="23.272727966308594" fill="#290303">
</rect>
  <rect x="267.2896728515625" y="148.3636245727539" width="23.2896728515625"
    height="23.272720336914062" fill="#6C0303">
</rect>
  <rect x="290.579345703125" y="171.6362762451172" width="23.28966522216797"
    height="23.272720336914062" fill="#6C0303">
</rect>
  <rect x="290.579345703125" y="148.3636245727539" width="23.28966522216797"
    height="23.272720336914062" fill="#FF0303">
</rect>
  <rect x="290.579345703125" y="148.3636245727539" width="23.28966522216797"
    height="23.272720336914062" fill="#FF0303">
</rect>
  <rect x="313.8690185546875" y="194.90911865234375" width="23.289653778076172"
    height="23.272720336914062" fill="#FF0303">
</rect>
  <rect x="337.15869140625" y="171.6362762451172" width="23.289657592773438"
    height="23.272720336914062" fill="#FF0303">
</rect>
  <rect x="360.44830322265625" y="78.54544067382812" width="23.289657592773438"
    height="23.272724151611328" fill="#FF0303">
</rect>
  <rect x="337.15869140625" y="101.81814575195312" width="23.289657592773438"
    height="23.272720336914062" fill="#FF0303">
</rect>
  <rect x="360.44830322265625" y="125.09087371826172" width="23.289657592773438"
    height="23.272727966308594" fill="#FF0303">
</rect>
  <rect x="313.8690185546875" y="148.3636245727539" width="23.289653778076172"
    height="23.272720336914062" fill="#A60E04">
</rect>
  <rect x="313.8690185546875" y="171.6362762451172" width="23.289653778076172"
    height="23.272720336914062" fill="#A60E04">
</rect>
  <rect x="290.579345703125" y="194.90911865234375" width="23.28966522216797"
    height="23.272720336914062" fill="#A60E04">
</rect>
  <rect x="267.2896728515625" y="171.6362762451172" width="23.2896728515625"
    height="23.272720336914062" fill="#A60E04">
</rect>
  <rect x="360.44830322265625" y="171.6362762451172" width="23.289657592773438"
    height="23.272720336914062" fill="#A60E04">
</rect>
  <rect x="337.15869140625" y="194.90911865234375" width="23.289657592773438"
    height="23.272720336914062" fill="#A60E04">
</rect>
  <rect x="337.15869140625" y="148.3636245727539" width="23.289657592773438"
    height="23.272720336914062" fill="#6C0303">
</rect>
  <rect x="360.44830322265625" y="55.27272033691406" width="23.289657592773438"
    height="23.272722244262695" fill="#6C0303">
</rect>
  <rect x="383.738037109375" y="55.27272033691406" width="23.28966522216797"
    height="23.272722244262695" fill="#A60E04">
</rect>
  <rect x="383.738037109375" y="78.54544067382812" width="23.28966522216797"
    height="23.272724151611328" fill="#A60E04">
</rect>
  <rect x="360.44830322265625" y="101.81814575195312" width="23.289657592773438"
    height="23.272720336914062" fill="#A60E04">
</rect>
  <rect x="383.738037109375" y="101.81814575195312" width="23.28966522216797"
    height="23.272720336914062" fill="#6C0303">
</rect>
  <rect x="407.027587890625" y="78.54544067382812" width="23.2896728515625"
    height="23.272724151611328" fill="#3C0603">
</rect>
  <rect x="407.027587890625" y="125.09087371826172" width="23.2896728515625"
    height="23.272727966308594" fill="#3C0603">
</rect>
  <rect x="407.027587890625" y="101.81814575195312" width="23.2896728515625"
    height="23.272720336914062" fill="#FF0303">
</rect>
  <rect x="337.15869140625" y="78.54544067382812" width="23.289657592773438"
    height="23.272724151611328" fill="#A60E04">
</rect>
  <rect x="313.8690185546875" y="101.81814575195312" width="23.289653778076172"
    height="23.272720336914062" fill="#A60E04">
</rect>
  <rect x="290.579345703125" y="125.09087371826172" width="23.28966522216797"
    height="23.272727966308594" fill="#A60E04">
</rect>
  <rect x="313.8690185546875" y="125.09087371826172" width="23.289653778076172"
    height="23.272727966308594" fill="#A60E04">
</rect>
  <rect x="337.15869140625" y="125.09087371826172" width="23.289657592773438"
    height="23.272727966308594" fill="#A60E04">
</rect>
  <rect x="383.738037109375" y="125.09087371826172" width="23.28966522216797"
    height="23.272727966308594" fill="#A60E04">
</rect>
  <rect x="383.738037109375" y="171.6362762451172" width="23.28966522216797"
    height="23.272720336914062" fill="#6C0303">
</rect>
  <rect x="360.44830322265625" y="194.90911865234375" width="23.289657592773438"
    height="23.272720336914062" fill="#6C0303">
</rect>
  <rect x="360.44830322265625" y="148.3636245727539" width="23.289657592773438"
    height="23.272720336914062" fill="#3C0603">
</rect>
  <rect x="383.738037109375" y="148.3636245727539" width="23.28966522216797"
    height="23.272720336914062" fill="#FF0303">
</rect>
  <rect x="407.027587890625" y="194.90911865234375" width="23.2896728515625"
    height="23.272720336914062" fill="#FF0303">
</rect>
  <rect x="407.027587890625" y="148.3636245727539" width="23.2896728515625"
    height="23.272720336914062" fill="#6C0303">
</rect>
  <rect x="430.3173828125" y="125.09087371826172" width="23.289657592773438"
    height="23.272727966308594" fill="#6C0303">
</rect>
  <rect x="430.3173828125" y="148.3636245727539" width="23.289657592773438"
    height="23.272720336914062" fill="#3C0603">
</rect>
  <rect x="453.60699462890625" y="125.09087371826172" width="23.289657592773438"
    height="23.272727966308594" fill="#3C0603">
</rect>
  <rect x="430.3173828125" y="101.81814575195312" width="23.289657592773438"
    height="23.272720336914062" fill="#3C0603">
</rect>
  <rect x="453.60699462890625" y="148.3636245727539" width="23.289657592773438"
    height="23.272720336914062" fill="#A60E04">
</rect>
  <rect x="476.89666748046875" y="148.3636245727539" width="23.289657592773438"
    height="23.272720336914062" fill="#2F0706">
</rect>
  <rect x="476.89666748046875" y="171.6362762451172" width="23.289657592773438"
    height="23.272720336914062" fill="#3C0603">
</rect>
  <rect x="476.89666748046875" y="194.90911865234375" width="23.289657592773438"
    height="23.272720336914062" fill="#2F0706">
</rect>
  <rect x="453.60699462890625" y="171.6362762451172" width="23.289657592773438"
    height="23.272720336914062" fill="#560803">
</rect>
  <rect x="453.60699462890625" y="194.90911865234375" width="23.289657592773438"
    height="23.272720336914062" fill="#3C0603">
</rect>
  <rect x="430.3173828125" y="171.6362762451172" width="23.289657592773438"
    height="23.272720336914062" fill="#3C0603">
</rect>
  <rect x="430.3173828125" y="194.90911865234375" width="23.289657592773438"
    height="23.272720336914062" fill="#3C0603">
</rect>
  <rect x="407.027587890625" y="171.6362762451172" width="23.2896728515625"
    height="23.272720336914062" fill="#3C0603">
</rect>
  <rect x="383.738037109375" y="194.90911865234375" width="23.28966522216797"
    height="23.272720336914062" fill="#3C0603">
</rect>
  <rect x="500.186279296875" y="148.3636245727539" width="23.289657592773438"
    height="23.272720336914062" fill="#290303">
</rect>
  <rect x="500.186279296875" y="171.6362762451172" width="23.289657592773438"
    height="23.272720336914062" fill="#290303">
</rect>
  <rect x="500.186279296875" y="194.90911865234375" width="23.289657592773438"
    height="23.272720336914062" fill="#290303">
</rect>
  <defs>
    <radialGradient id="linear_fill_3_164" cx="0" cy="0" r="1"
      gradientTransform="translate(384 160) rotate(90) scale(224.24576000000002, 224.24576000000002)"
      gradientUnits="userSpaceOnUse">
      <stop offset="0" stop-color="#D1D1D1" stop-opacity="0.8" />
      <stop offset="1" stop-color="#FFFFFF" stop-opacity="0" />
    </radialGradient>
  </defs>
</svg>