<svg xmlns="http://www.w3.org/2000/svg" xmlns:xlink="http://www.w3.org/1999/xlink" width="512"
  height="320" viewBox="0 0 512 320" fill="none" shape-rendering="crispEdges"
  style="image-rendering: pixelated;">
  <path fill="#FFFFFF" d="M0 320L512 320L512 0L0 0L0 320Z">
</path>
  <path d="M0 192L512 192L512 128L0 128L0 192Z" fill="#FFFFFF">
</path>
  <rect x="0" y="160" width="32" height="32" fill="#8A0404">
</rect>
  <rect x="0" y="128" width="32" height="32" fill="#700707">
</rect>
  <rect x="480" y="160" width="32" height="32" fill="#004D70">
</rect>
  <rect x="480" y="128" width="32" height="32" fill="#075173">
</rect>
  <rect x="32" y="160" width="32" height="32" fill="#AD0303">
</rect>
  <rect x="32" y="128" width="32" height="32" fill="#8C1212">
</rect>
  <rect x="64" y="160" width="32" height="32" fill="#9C0606">
</rect>
  <rect x="64" y="128" width="32" height="32" fill="#820909">
</rect>
  <rect x="96" y="160" width="32" height="32" fill="#960606">
</rect>
  <rect x="96" y="128" width="32" height="32" fill="#851313">
</rect>
  <rect x="448" y="160" width="32" height="32" fill="#075173">
</rect>
  <rect x="448" y="128" width="32" height="32" fill="#084D6E">
</rect>
  <rect x="160" y="160" width="32" height="32" fill="#BF1B1B">
</rect>
  <rect x="160" y="128" width="32" height="32" fill="#AD0303">
</rect>
  <rect x="128" y="160" width="32" height="32" fill="#AD0303">
</rect>
  <rect x="128" y="128" width="32" height="32" fill="#A30000">
</rect>
  <rect x="352" y="160" width="32" height="32" fill="#055275">
</rect>
  <rect x="352" y="128" width="32" height="32" fill="#055980">
</rect>
  <rect x="384" y="160" width="32" height="32" fill="#084D6E">
</rect>
  <rect x="384" y="128" width="32" height="32" fill="#0F506E">
</rect>
  <rect x="192" y="160" width="32" height="32" fill="#AD0303">
</rect>
  <rect x="192" y="128" width="32" height="32" fill="#C70808">
</rect>
  <rect x="224" y="160" width="32" height="32" fill="#B80909">
</rect>
  <rect x="224" y="128" width="32" height="32" fill="#B80909">
</rect>
  <rect x="288" y="160" width="32" height="32" fill="#0E5C80">
</rect>
  <rect x="288" y="128" width="32" height="32" fill="#0D709E">
</rect>
  <rect x="320" y="160" width="32" height="32" fill="#0C597D">
</rect>
  <rect x="320" y="128" width="32" height="32" fill="#09648F">
</rect>
  <rect x="256" y="160" width="32" height="32" fill="#055980">
</rect>
  <rect x="256" y="128" width="32" height="32" fill="#0A6894">
</rect>
  <rect x="416" y="160" width="32" height="32" fill="#0D5475">
</rect>
  <rect x="416" y="128" width="32" height="32" fill="#084D6E">
</rect>
  <ellipse cx="256" cy="160" rx="256" ry="160" fill="url(#linear_fill_0_3)">
</ellipse>
  <rect x="116" y="194.90911865234375" width="23.28965304976714" height="23.272720336914062"
    fill="#290303">
</rect>
  <rect x="139.2896728515625" y="218.18174743652344" width="23.2896728515625"
    height="23.272720336914062" fill="#290303">
</rect>
  <rect x="162.57933807373047" y="241.45448303222656" width="23.28966522216797"
    height="23.272720336914062" fill="#290303">
</rect>
  <rect x="185.86900329589844" y="241.45448303222656" width="23.289653778076172"
    height="23.272720336914062" fill="#290303">
</rect>
  <rect x="209.15867614746094" y="241.45448303222656" width="23.289657592773438"
    height="23.272720336914062" fill="#2F0706">
</rect>
  <rect x="209.15867614746094" y="264.7272491455078" width="23.289657592773438"
    height="23.272720336914062" fill="#290303">
</rect>
  <rect x="232.44832611083984" y="264.7272491455078" width="23.289657592773438"
    height="23.272720336914062" fill="#290303">
</rect>
  <rect x="255.73800659179688" y="264.7272491455078" width="23.28966522216797"
    height="23.272720336914062" fill="#290303">
</rect>
  <rect x="279.027587890625" y="264.7272491455078" width="23.2896728515625"
    height="23.272720336914062" fill="#290303">
</rect>
  <rect x="279.027587890625" y="241.45448303222656" width="23.2896728515625"
    height="23.272720336914062" fill="#2F0706">
</rect>
  <rect x="302.3173522949219" y="241.45448303222656" width="23.289657592773438"
    height="23.272720336914062" fill="#290303">
</rect>
  <rect x="325.60699462890625" y="241.45448303222656" width="23.289657592773438"
    height="23.272720336914062" fill="#290303">
</rect>
  <rect x="325.60699462890625" y="218.18174743652344" width="23.289657592773438"
    height="23.272720336914062" fill="#2F0706">
</rect>
  <rect x="348.8966522216797" y="218.18174743652344" width="23.289657592773438"
    height="23.272720336914062" fill="#290303">
</rect>
  <rect x="116" y="171.6362762451172" width="23.28965304976714" height="23.272720336914062"
    fill="#560803">
</rect>
  <rect x="139.2896728515625" y="194.90911865234375" width="23.2896728515625"
    height="23.272720336914062" fill="#560803">
</rect>
  <rect x="162.57933807373047" y="218.18174743652344" width="23.28966522216797"
    height="23.272720336914062" fill="#3C0603">
</rect>
  <rect x="185.86900329589844" y="218.18174743652344" width="23.289653778076172"
    height="23.272720336914062" fill="#A60E04">
</rect>
  <rect x="209.15867614746094" y="218.18174743652344" width="23.289657592773438"
    height="23.272720336914062" fill="#6C0303">
</rect>
  <rect x="232.44832611083984" y="218.18174743652344" width="23.289657592773438"
    height="23.272720336914062" fill="#3C0603">
</rect>
  <rect x="255.73800659179688" y="218.18174743652344" width="23.28966522216797"
    height="23.272720336914062" fill="#560803">
</rect>
  <rect x="255.73800659179688" y="241.45448303222656" width="23.28966522216797"
    height="23.272720336914062" fill="#3C0603">
</rect>
  <rect x="232.44832611083984" y="241.45448303222656" width="23.289657592773438"
    height="23.272720336914062" fill="#3C0603">
</rect>
  <rect x="279.027587890625" y="218.18174743652344" width="23.2896728515625"
    height="23.272720336914062" fill="#3C0603">
</rect>
  <rect x="302.3173522949219" y="218.18174743652344" width="23.289657592773438"
    height="23.272720336914062" fill="#3C0603">
</rect>
  <rect x="116" y="148.3636245727539" width="23.28965304976714" height="23.272720336914062"
    fill="#560803">
</rect>
  <rect x="139.2896728515625" y="125.09087371826172" width="23.2896728515625"
    height="23.272727966308594" fill="#560803">
</rect>
  <rect x="162.57933807373047" y="101.81814575195312" width="23.28966522216797"
    height="23.272720336914062" fill="#560803">
</rect>
  <rect x="185.86900329589844" y="78.54544067382812" width="23.289653778076172"
    height="23.272724151611328" fill="#560803">
</rect>
  <rect x="209.15867614746094" y="55.27272033691406" width="23.289657592773438"
    height="23.272722244262695" fill="#560803">
</rect>
  <rect x="232.44832611083984" y="32" width="23.289657592773438" height="23.2727108001709"
    fill="#560803">
</rect>
  <rect x="255.73800659179688" y="32" width="23.28966522216797" height="23.2727108001709"
    fill="#560803">
</rect>
  <rect x="279.027587890625" y="55.27272033691406" width="23.2896728515625"
    height="23.272722244262695" fill="#560803">
</rect>
  <rect x="302.3173522949219" y="78.54544067382812" width="23.289657592773438"
    height="23.272724151611328" fill="#290303">
</rect>
  <rect x="325.60699462890625" y="101.81814575195312" width="23.289657592773438"
    height="23.272720336914062" fill="#290303">
</rect>
  <rect x="348.8966522216797" y="125.09087371826172" width="23.289657592773438"
    height="23.272727966308594" fill="#290303">
</rect>
  <rect x="139.2896728515625" y="148.3636245727539" width="23.2896728515625"
    height="23.272720336914062" fill="#6C0303">
</rect>
  <rect x="162.57933807373047" y="171.6362762451172" width="23.28966522216797"
    height="23.272720336914062" fill="#6C0303">
</rect>
  <rect x="162.57933807373047" y="148.3636245727539" width="23.28966522216797"
    height="23.272720336914062" fill="#FF0303">
</rect>
  <rect x="162.57933807373047" y="148.3636245727539" width="23.28966522216797"
    height="23.272720336914062" fill="#FF0303">
</rect>
  <rect x="185.86900329589844" y="194.90911865234375" width="23.289653778076172"
    height="23.272720336914062" fill="#FF0303">
</rect>
  <rect x="209.15867614746094" y="171.6362762451172" width="23.289657592773438"
    height="23.272720336914062" fill="#FF0303">
</rect>
  <rect x="232.44832611083984" y="78.54544067382812" width="23.289657592773438"
    height="23.272724151611328" fill="#FF0303">
</rect>
  <rect x="209.15867614746094" y="101.81814575195312" width="23.289657592773438"
    height="23.272720336914062" fill="#FF0303">
</rect>
  <rect x="232.44832611083984" y="125.09087371826172" width="23.289657592773438"
    height="23.272727966308594" fill="#FF0303">
</rect>
  <rect x="185.86900329589844" y="148.3636245727539" width="23.289653778076172"
    height="23.272720336914062" fill="#A60E04">
</rect>
  <rect x="185.86900329589844" y="171.6362762451172" width="23.289653778076172"
    height="23.272720336914062" fill="#A60E04">
</rect>
  <rect x="162.57933807373047" y="194.90911865234375" width="23.28966522216797"
    height="23.272720336914062" fill="#A60E04">
</rect>
  <rect x="139.2896728515625" y="171.6362762451172" width="23.2896728515625"
    height="23.272720336914062" fill="#A60E04">
</rect>
  <rect x="232.44832611083984" y="171.6362762451172" width="23.289657592773438"
    height="23.272720336914062" fill="#A60E04">
</rect>
  <rect x="209.15867614746094" y="194.90911865234375" width="23.289657592773438"
    height="23.272720336914062" fill="#A60E04">
</rect>
  <rect x="209.15867614746094" y="148.3636245727539" width="23.289657592773438"
    height="23.272720336914062" fill="#6C0303">
</rect>
  <rect x="232.44832611083984" y="55.27272033691406" width="23.289657592773438"
    height="23.272722244262695" fill="#6C0303">
</rect>
  <rect x="255.73800659179688" y="55.27272033691406" width="23.28966522216797"
    height="23.272722244262695" fill="#A60E04">
</rect>
  <rect x="255.73800659179688" y="78.54544067382812" width="23.28966522216797"
    height="23.272724151611328" fill="#A60E04">
</rect>
  <rect x="232.44832611083984" y="101.81814575195312" width="23.289657592773438"
    height="23.272720336914062" fill="#A60E04">
</rect>
  <rect x="255.73800659179688" y="101.81814575195312" width="23.28966522216797"
    height="23.272720336914062" fill="#6C0303">
</rect>
  <rect x="279.027587890625" y="78.54544067382812" width="23.2896728515625"
    height="23.272724151611328" fill="#3C0603">
</rect>
  <rect x="279.027587890625" y="125.09087371826172" width="23.2896728515625"
    height="23.272727966308594" fill="#3C0603">
</rect>
  <rect x="279.027587890625" y="101.81814575195312" width="23.2896728515625"
    height="23.272720336914062" fill="#FF0303">
</rect>
  <rect x="209.15867614746094" y="78.54544067382812" width="23.289657592773438"
    height="23.272724151611328" fill="#A60E04">
</rect>
  <rect x="185.86900329589844" y="101.81814575195312" width="23.289653778076172"
    height="23.272720336914062" fill="#A60E04">
</rect>
  <rect x="162.57933807373047" y="125.09087371826172" width="23.28966522216797"
    height="23.272727966308594" fill="#A60E04">
</rect>
  <rect x="185.86900329589844" y="125.09087371826172" width="23.289653778076172"
    height="23.272727966308594" fill="#A60E04">
</rect>
  <rect x="209.15867614746094" y="125.09087371826172" width="23.289657592773438"
    height="23.272727966308594" fill="#A60E04">
</rect>
  <rect x="255.73800659179688" y="125.09087371826172" width="23.28966522216797"
    height="23.272727966308594" fill="#A60E04">
</rect>
  <rect x="255.73800659179688" y="171.6362762451172" width="23.28966522216797"
    height="23.272720336914062" fill="#6C0303">
</rect>
  <rect x="232.44832611083984" y="194.90911865234375" width="23.289657592773438"
    height="23.272720336914062" fill="#6C0303">
</rect>
  <rect x="232.44832611083984" y="148.3636245727539" width="23.289657592773438"
    height="23.272720336914062" fill="#3C0603">
</rect>
  <rect x="255.73800659179688" y="148.3636245727539" width="23.28966522216797"
    height="23.272720336914062" fill="#FF0303">
</rect>
  <rect x="279.027587890625" y="194.90911865234375" width="23.2896728515625"
    height="23.272720336914062" fill="#FF0303">
</rect>
  <rect x="279.027587890625" y="148.3636245727539" width="23.2896728515625"
    height="23.272720336914062" fill="#6C0303">
</rect>
  <rect x="302.3173522949219" y="125.09087371826172" width="23.289657592773438"
    height="23.272727966308594" fill="#6C0303">
</rect>
  <rect x="302.3173522949219" y="148.3636245727539" width="23.289657592773438"
    height="23.272720336914062" fill="#3C0603">
</rect>
  <rect x="325.60699462890625" y="125.09087371826172" width="23.289657592773438"
    height="23.272727966308594" fill="#3C0603">
</rect>
  <rect x="302.3173522949219" y="101.81814575195312" width="23.289657592773438"
    height="23.272720336914062" fill="#3C0603">
</rect>
  <rect x="325.60699462890625" y="148.3636245727539" width="23.289657592773438"
    height="23.272720336914062" fill="#A60E04">
</rect>
  <rect x="348.8966522216797" y="148.3636245727539" width="23.289657592773438"
    height="23.272720336914062" fill="#2F0706">
</rect>
  <rect x="348.8966522216797" y="171.6362762451172" width="23.289657592773438"
    height="23.272720336914062" fill="#3C0603">
</rect>
  <rect x="348.8966522216797" y="194.90911865234375" width="23.289657592773438"
    height="23.272720336914062" fill="#2F0706">
</rect>
  <rect x="325.60699462890625" y="171.6362762451172" width="23.289657592773438"
    height="23.272720336914062" fill="#560803">
</rect>
  <rect x="325.60699462890625" y="194.90911865234375" width="23.289657592773438"
    height="23.272720336914062" fill="#3C0603">
</rect>
  <rect x="302.3173522949219" y="171.6362762451172" width="23.289657592773438"
    height="23.272720336914062" fill="#3C0603">
</rect>
  <rect x="302.3173522949219" y="194.90911865234375" width="23.289657592773438"
    height="23.272720336914062" fill="#3C0603">
</rect>
  <rect x="279.027587890625" y="171.6362762451172" width="23.2896728515625"
    height="23.272720336914062" fill="#3C0603">
</rect>
  <rect x="255.73800659179688" y="194.90911865234375" width="23.28966522216797"
    height="23.272720336914062" fill="#3C0603">
</rect>
  <rect x="372.186279296875" y="148.3636245727539" width="23.289657592773438"
    height="23.272720336914062" fill="#290303">
</rect>
  <rect x="372.186279296875" y="171.6362762451172" width="23.289657592773438"
    height="23.272720336914062" fill="#290303">
</rect>
  <rect x="372.186279296875" y="194.90911865234375" width="23.289657592773438"
    height="23.272720336914062" fill="#290303">
</rect>
  <defs>
    <radialGradient id="linear_fill_0_3" cx="0" cy="0" r="1"
      gradientTransform="translate(256 160) rotate(90) scale(224.24576000000002, 224.24576000000002)"
      gradientUnits="userSpaceOnUse">
      <stop offset="0" stop-color="#D1D1D1" stop-opacity="0.8" />
      <stop offset="1" stop-color="#FFFFFF" stop-opacity="0" />
    </radialGradient>
  </defs>
</svg>